<?xml version="1.0" encoding="UTF-8"?>
<svg xmlns="http://www.w3.org/2000/svg" xmlns:xlink="http://www.w3.org/1999/xlink" width="159px" height="59px" viewBox="0 0 158 59" version="1.1">
<g id="surface1">
<path style=" stroke:none;fill-rule:nonzero;fill:rgb(0%,0%,0%);fill-opacity:1;" d="M 81.855469 0.257812 C 86.148438 -0.269531 90.265625 0.121094 94.339844 1.324219 C 105.046875 4.484375 113.390625 14.320312 114.75 25.472656 C 114.773438 25.660156 114.828125 25.847656 114.847656 26.035156 C 114.933594 26.746094 114.742188 27.339844 113.957031 27.445312 C 113.164062 27.550781 112.804688 27.011719 112.738281 26.304688 C 112.59375 24.753906 112.230469 23.253906 111.753906 21.78125 C 108.292969 11.105469 101.066406 4.613281 90.085938 2.621094 C 77.375 0.308594 64.503906 8.082031 60.128906 20.371094 C 60.003906 20.722656 59.855469 21.066406 59.871094 21.550781 C 60.859375 20.714844 61.347656 19.613281 61.964844 18.613281 C 62.808594 17.242188 63.597656 15.839844 64.4375 14.464844 C 65.460938 12.777344 66.855469 11.746094 68.941406 11.980469 C 69.816406 12.078125 70.691406 12.179688 71.566406 12.246094 C 72.945312 12.351562 73.679688 13.136719 74.109375 14.40625 C 75.128906 17.4375 74.777344 18.136719 71.710938 19.03125 C 70.664062 19.335938 69.632812 19.480469 68.554688 19.179688 C 68.074219 20.210938 68.320312 21.195312 68.457031 22.304688 C 69.90625 22.167969 71.242188 22.417969 72.4375 23.21875 C 72.742188 23.425781 73.050781 23.242188 73.34375 23.15625 C 75.871094 22.40625 78.238281 22.628906 80.421875 24.234375 C 81.242188 24.835938 82.691406 24.378906 83.179688 23.457031 C 83.699219 22.476562 83.683594 21.378906 83.816406 20.324219 C 84.265625 16.753906 86.28125 14.460938 89.453125 13.992188 C 91.789062 13.648438 95.738281 15.71875 96.847656 17.808594 C 97.578125 19.1875 97.1875 20.597656 97.070312 21.992188 C 97.003906 22.800781 96.835938 23.59375 96.398438 24.339844 C 95.984375 25.039062 96.21875 25.882812 96.25 26.664062 C 96.261719 27.011719 96.636719 27.050781 96.902344 27.101562 C 98.046875 27.335938 99.085938 27.859375 99.90625 28.625 C 100.925781 29.566406 102.207031 29.46875 103.445312 29.992188 C 103.523438 28.34375 102.953125 27.003906 102.433594 25.667969 C 102.253906 25.203125 101.726562 25.289062 101.355469 25.5 C 99.867188 26.34375 98.8125 25.84375 97.535156 24.328125 C 97.074219 23.78125 96.925781 23.082031 97.222656 22.359375 C 97.523438 21.632812 97.796875 20.886719 98.132812 20.175781 C 98.648438 19.097656 99.402344 18.722656 100.597656 18.898438 C 102.003906 19.105469 103.351562 19.550781 104.691406 20.011719 C 105.832031 20.402344 106.527344 21.300781 107.117188 22.292969 C 109.058594 25.5625 110.800781 28.917969 111.574219 32.691406 C 111.617188 32.886719 111.628906 33.140625 111.875 33.269531 C 112.320312 33.011719 112.554688 32.550781 112.875 32.171875 C 113.214844 31.773438 113.574219 31.414062 114.15625 31.5625 C 114.769531 31.71875 114.976562 32.222656 115.0625 32.773438 C 115.332031 34.417969 115.585938 36.070312 115.839844 37.722656 C 116.183594 39.933594 116.503906 42.148438 116.871094 44.355469 C 116.992188 45.078125 116.871094 45.664062 116.117188 45.84375 C 115.308594 46.03125 114.886719 45.570312 114.761719 44.785156 C 114.46875 42.945312 114.167969 41.109375 113.867188 39.269531 C 113.839844 39.09375 113.882812 38.886719 113.667969 38.730469 C 113.167969 39.882812 112.726562 41.054688 112.164062 42.164062 C 107.425781 51.558594 99.800781 57.175781 89.503906 58.660156 C 80.460938 59.964844 72.464844 57.125 65.734375 50.910156 C 60.945312 46.484375 58.050781 40.976562 56.867188 34.554688 C 56.804688 34.214844 56.777344 33.859375 56.789062 33.515625 C 56.8125 32.957031 57.164062 32.667969 57.691406 32.589844 C 58.195312 32.515625 58.570312 32.742188 58.734375 33.207031 C 58.894531 33.648438 58.972656 34.121094 59.0625 34.585938 C 61.257812 46.054688 70.703125 55.023438 82.199219 56.550781 C 93.375 58.035156 104.828125 51.972656 109.894531 41.894531 C 110.019531 41.648438 110.105469 41.382812 110.226562 41.085938 C 109.050781 40.960938 108.125 41.207031 107.507812 42.226562 C 107.347656 42.492188 107.128906 42.734375 106.90625 42.953125 C 106.523438 43.332031 106.078125 43.578125 105.558594 43.226562 C 105.066406 42.890625 104.84375 42.433594 105.132812 41.835938 C 105.183594 41.730469 105.214844 41.609375 105.285156 41.414062 C 104.765625 41.386719 104.304688 41.316406 103.847656 41.351562 C 101.289062 41.554688 99.097656 40.582031 97.066406 39.171875 C 96.449219 38.742188 96.140625 38.769531 95.628906 39.375 C 93.808594 41.542969 92.808594 44.109375 91.917969 46.738281 C 91.691406 47.414062 91.847656 48.121094 91.96875 48.804688 C 92.128906 49.707031 91.992188 50.566406 91.65625 51.402344 C 91.265625 52.375 91.003906 52.480469 89.878906 52.144531 C 89.890625 52 89.851562 51.820312 89.917969 51.699219 C 90.625 50.394531 90.585938 49.035156 90.277344 47.640625 C 90.226562 47.402344 90.203125 47.101562 90.296875 46.890625 C 91.003906 45.351562 91.261719 43.65625 92.132812 42.152344 C 93.019531 40.628906 93.832031 39.082031 95.007812 37.753906 C 95.207031 37.527344 95.40625 37.265625 95.433594 36.914062 C 94.800781 36.28125 94.238281 36.378906 93.714844 37.066406 C 93.234375 37.699219 92.730469 38.3125 92.011719 38.675781 C 91.695312 38.835938 91.363281 39.085938 90.796875 38.742188 C 92.03125 37.890625 92.570312 36.519531 93.636719 35.59375 C 94.015625 35.265625 94.457031 35 95.011719 35.273438 C 96.691406 36.101562 98.242188 35.820312 99.699219 34.722656 C 99.871094 34.59375 100.039062 34.429688 100.289062 34.496094 C 100.441406 35.546875 99.261719 36.445312 96.984375 37.019531 C 96.890625 37.15625 96.964844 37.265625 97.0625 37.339844 C 98.953125 38.761719 100.925781 39.914062 103.410156 39.914062 C 106.636719 39.910156 106.636719 39.949219 108.664062 37.40625 C 110.652344 34.914062 110.664062 34.910156 109.859375 31.820312 C 108.988281 28.476562 107.34375 25.496094 105.558594 22.582031 C 105.199219 21.996094 104.695312 21.585938 104.042969 21.355469 C 102.886719 20.941406 101.710938 20.609375 100.496094 20.414062 C 99.921875 20.324219 99.519531 20.511719 99.320312 21.097656 C 99.171875 21.542969 98.996094 21.984375 98.804688 22.417969 C 98.539062 23.023438 98.644531 23.523438 99.167969 23.933594 C 99.6875 24.339844 100.152344 24.492188 100.753906 23.980469 C 101.324219 23.496094 102.03125 24.011719 102.675781 23.9375 C 103.625 23.832031 103.683594 24.523438 103.871094 25.175781 C 104.257812 26.507812 104.765625 27.800781 104.972656 29.191406 C 105.15625 30.402344 105 31.570312 104.824219 32.738281 C 104.417969 32.859375 104.292969 32.539062 104.089844 32.363281 C 103.121094 31.511719 102.074219 30.835938 100.714844 30.917969 C 100.355469 30.941406 100.132812 30.757812 99.902344 30.523438 C 97.929688 28.5 95.542969 28.027344 92.871094 28.652344 C 92.664062 28.699219 92.40625 28.769531 92.292969 28.921875 C 91.621094 29.820312 90.789062 29.640625 90.007812 29.230469 C 87.542969 27.9375 87.046875 27.21875 87.425781 24.226562 C 87.457031 23.976562 87.503906 23.722656 87.8125 23.566406 C 88.265625 24.117188 88.15625 24.816406 88.257812 25.4375 C 88.492188 26.898438 89.691406 28.304688 91.078125 28.621094 C 91.304688 28.675781 91.597656 28.703125 91.691406 28.511719 C 92.128906 27.617188 93.265625 27.496094 93.707031 26.621094 C 93.734375 26.566406 93.765625 26.480469 93.8125 26.46875 C 95.148438 26.148438 94.71875 25.074219 94.773438 24.207031 C 94.789062 24.019531 94.757812 23.773438 94.859375 23.65625 C 95.859375 22.492188 95.671875 21.054688 95.777344 19.691406 C 95.824219 19.105469 95.679688 18.539062 95.285156 18.097656 C 93.699219 16.335938 91.726562 15.335938 89.351562 15.5625 C 87.085938 15.78125 85.566406 17.8125 85.257812 20.675781 C 85.132812 21.800781 85.09375 22.941406 84.578125 23.996094 C 83.609375 25.988281 81.125 26.609375 79.351562 25.308594 C 77.574219 24.003906 75.652344 23.957031 73.582031 24.667969 C 73.765625 25.492188 74.566406 26.070312 74.203125 26.929688 C 73.839844 27.042969 73.753906 26.757812 73.621094 26.558594 C 71.796875 23.890625 70.476562 23.402344 67.371094 24.246094 C 67.253906 24.277344 67.128906 24.269531 66.863281 24.296875 C 66.972656 21.886719 66.402344 19.484375 67.5 17.199219 C 67.648438 16.886719 67.734375 16.53125 68.191406 16.535156 C 68.617188 16.539062 68.921875 16.699219 69.066406 17.113281 C 69.320312 17.820312 69.769531 17.984375 70.476562 17.742188 C 71.125 17.519531 71.835938 17.503906 72.46875 17.199219 C 72.664062 17.105469 72.882812 17.054688 73 16.835938 C 73.375 16.140625 72.4375 13.949219 71.660156 13.816406 C 70.671875 13.648438 69.671875 13.523438 68.671875 13.441406 C 67.4375 13.335938 66.355469 14.058594 65.789062 15.28125 C 66.847656 16.316406 66.867188 16.597656 65.886719 17.792969 C 64.429688 19.574219 62.960938 21.347656 61.496094 23.125 C 60.066406 24.863281 60.339844 27.515625 62.21875 28.660156 C 63.78125 29.613281 65.257812 30.683594 66.777344 31.691406 C 68.613281 32.910156 70.644531 32.710938 72.824219 32.640625 C 72.046875 31.585938 71.113281 30.753906 71.382812 29.363281 C 71.882812 29.550781 71.972656 29.953125 72.183594 30.246094 C 73.121094 31.582031 74.382812 32.328125 76.023438 32.238281 C 76.921875 32.191406 77.308594 32.746094 77.503906 33.417969 C 77.816406 34.496094 77.996094 35.613281 78.246094 36.773438 C 77.707031 36.820312 77.519531 36.472656 77.371094 36.152344 C 77.140625 35.667969 76.953125 35.164062 76.777344 34.65625 C 76.363281 33.460938 76.371094 33.457031 74.957031 33.496094 C 74.761719 34.347656 75.089844 35.117188 75.480469 35.8125 C 76.214844 37.128906 76.386719 38.539062 76.671875 40 C 77.144531 42.457031 76.675781 44.835938 76.679688 47.238281 C 76.679688 49.011719 75.652344 50.53125 74.660156 51.96875 C 74.273438 52.535156 73.667969 52.339844 73.125 52.234375 C 72.976562 51.707031 73.335938 51.417969 73.539062 51.085938 C 74.566406 49.390625 75.070312 47.628906 75.265625 45.585938 C 75.492188 43.222656 75.042969 40.945312 75.109375 38.628906 C 75.117188 38.285156 74.945312 38.023438 74.804688 37.746094 C 74.316406 36.789062 73.800781 35.839844 73.550781 34.785156 C 73.425781 34.253906 73.164062 34.078125 72.613281 34.148438 C 69.644531 34.519531 66.925781 33.941406 64.574219 31.96875 C 63.726562 31.261719 62.738281 30.757812 61.800781 30.179688 C 60.375 29.300781 59.222656 28.160156 59.039062 26.351562 C 58.929688 26.375 58.855469 26.367188 58.816406 26.398438 C 58.359375 26.796875 58.015625 27.484375 57.246094 27.171875 C 56.566406 26.890625 56.511719 26.230469 56.417969 25.585938 C 55.894531 21.996094 55.351562 18.40625 54.816406 14.816406 C 54.789062 14.628906 54.777344 14.441406 54.761719 14.25 C 54.699219 13.535156 54.90625 12.941406 55.6875 12.851562 C 56.558594 12.75 56.808594 13.414062 56.914062 14.109375 C 57.1875 15.851562 57.433594 17.597656 57.691406 19.34375 C 57.71875 19.523438 57.671875 19.734375 57.9375 19.878906 C 59.160156 16.59375 60.792969 13.542969 63.039062 10.859375 C 67.839844 5.109375 73.941406 1.617188 81.308594 0.359375 C 81.464844 0.335938 81.617188 0.296875 81.855469 0.257812 Z M 81.855469 0.257812 "/>
<path style=" stroke:none;fill-rule:nonzero;fill:rgb(0%,0%,0%);fill-opacity:1;" d="M 18.726562 20.921875 C 20.976562 20.945312 20.664062 20.695312 21.078125 22.871094 C 22.511719 30.398438 23.945312 37.921875 25.375 45.449219 C 25.441406 45.785156 25.464844 46.128906 25.515625 46.515625 C 24.675781 46.753906 23.863281 46.625 23.058594 46.621094 C 22.605469 46.621094 22.527344 46.265625 22.457031 45.90625 C 22.226562 44.730469 21.953125 43.5625 21.773438 42.378906 C 21.667969 41.691406 21.347656 41.5 20.699219 41.515625 C 19.285156 41.550781 17.871094 41.535156 16.457031 41.527344 C 15.707031 41.523438 15.214844 41.707031 15.125 42.609375 C 15.019531 43.671875 14.730469 44.714844 14.5625 45.773438 C 14.460938 46.421875 14.171875 46.710938 13.496094 46.65625 C 12.941406 46.605469 12.375 46.644531 11.769531 46.644531 C 11.574219 45.59375 11.949219 44.699219 12.121094 43.796875 C 13.457031 36.699219 14.832031 29.613281 16.191406 22.519531 C 16.496094 20.925781 16.484375 20.921875 18.066406 20.921875 C 18.257812 20.921875 18.445312 20.921875 18.726562 20.921875 M 16.804688 33.511719 C 16.46875 35.261719 16.132812 37.015625 15.78125 38.832031 C 17.617188 38.832031 19.320312 38.832031 21.128906 38.832031 C 20.242188 34.199219 19.375 29.675781 18.507812 25.152344 C 18.457031 25.152344 18.402344 25.15625 18.347656 25.160156 C 17.847656 27.890625 17.347656 30.621094 16.804688 33.511719 Z M 16.804688 33.511719 "/>
<path style=" stroke:none;fill-rule:nonzero;fill:rgb(0%,0%,0%);fill-opacity:1;" d="M 127.980469 38.929688 C 127.328125 37.34375 126.171875 36.285156 124.949219 35.273438 C 123.492188 34.066406 121.988281 32.902344 120.972656 31.261719 C 119.390625 28.707031 119.441406 26.019531 120.636719 23.378906 C 121.601562 21.25 123.859375 20.363281 126.683594 20.757812 C 129.003906 21.082031 130.621094 22.691406 131.121094 25.179688 C 131.15625 25.367188 131.183594 25.554688 131.207031 25.742188 C 131.550781 28.429688 131.257812 27.96875 129.0625 27.996094 C 128.589844 28.003906 128.390625 27.746094 128.390625 27.285156 C 128.390625 26.777344 128.375 26.277344 128.253906 25.777344 C 127.871094 24.175781 126.898438 23.386719 125.394531 23.496094 C 123.90625 23.605469 123.023438 24.558594 122.84375 26.167969 C 122.625 28.074219 123.300781 29.628906 124.601562 30.964844 C 125.65625 32.054688 126.878906 32.953125 128.019531 33.945312 C 130.679688 36.257812 131.933594 39.078125 131.113281 42.636719 C 130.464844 45.460938 128.382812 47.035156 125.398438 46.96875 C 122.289062 46.902344 120.398438 45.300781 119.875 42.332031 C 119.722656 41.484375 119.71875 40.636719 119.691406 39.785156 C 119.671875 39.113281 119.960938 38.867188 120.59375 38.921875 C 120.78125 38.9375 120.972656 38.921875 121.160156 38.921875 C 122.480469 38.921875 122.457031 38.921875 122.492188 40.242188 C 122.511719 40.871094 122.578125 41.511719 122.722656 42.121094 C 123.050781 43.480469 124.121094 44.230469 125.519531 44.152344 C 127.0625 44.070312 127.992188 43.257812 128.175781 41.722656 C 128.285156 40.816406 128.308594 39.890625 127.980469 38.929688 Z M 127.980469 38.929688 "/>
<path style=" stroke:none;fill-rule:nonzero;fill:rgb(0%,0%,0%);fill-opacity:1;" d="M 34.210938 36.898438 C 33.171875 35.738281 31.953125 34.886719 30.84375 33.90625 C 28.625 31.949219 27.140625 29.683594 27.332031 26.511719 C 27.546875 22.996094 29.484375 20.789062 32.667969 20.71875 C 36.386719 20.636719 38.511719 22.570312 38.78125 26.289062 C 38.800781 26.574219 38.777344 26.859375 38.800781 27.140625 C 38.847656 27.746094 38.582031 28.03125 37.976562 27.996094 C 37.820312 27.988281 37.664062 28 37.507812 28.003906 C 35.941406 28.015625 35.941406 28.015625 35.863281 26.410156 C 35.753906 24.113281 34.097656 22.941406 31.996094 23.691406 C 30.613281 24.183594 30.425781 25.429688 30.332031 26.625 C 30.171875 28.660156 31.203125 30.195312 32.640625 31.488281 C 33.882812 32.605469 35.195312 33.644531 36.390625 34.804688 C 38.589844 36.941406 39.234375 39.570312 38.613281 42.542969 C 37.910156 45.914062 35.574219 47.125 32.527344 46.910156 C 29.1875 46.679688 27.449219 44.710938 27.214844 41.179688 C 27.210938 41.085938 27.207031 40.992188 27.203125 40.894531 C 27.136719 38.878906 27.550781 38.542969 29.554688 38.929688 C 30.074219 39.027344 30.09375 39.367188 30.109375 39.757812 C 30.140625 40.609375 30.035156 41.464844 30.3125 42.296875 C 30.707031 43.496094 31.566406 44.152344 32.84375 44.191406 C 34.101562 44.226562 35.074219 43.609375 35.492188 42.457031 C 36.253906 40.363281 35.699219 38.550781 34.210938 36.898438 Z M 34.210938 36.898438 "/>
<path style=" stroke:none;fill-rule:nonzero;fill:rgb(0%,0%,0%);fill-opacity:1;" d="M 140.34375 46.648438 C 138.363281 46.644531 136.476562 46.625 134.589844 46.65625 C 133.898438 46.667969 133.652344 46.425781 133.652344 45.722656 C 133.667969 37.789062 133.667969 29.851562 133.648438 21.914062 C 133.648438 21.1875 133.886719 20.90625 134.628906 20.910156 C 137.523438 20.9375 140.417969 20.933594 143.3125 20.90625 C 144.046875 20.898438 144.351562 21.199219 144.316406 21.917969 C 144.300781 22.230469 144.300781 22.550781 144.316406 22.863281 C 144.347656 23.558594 144.011719 23.820312 143.34375 23.8125 C 141.457031 23.796875 139.566406 23.84375 137.679688 23.796875 C 136.847656 23.777344 136.597656 24.074219 136.617188 24.898438 C 136.667969 27.046875 136.65625 29.199219 136.621094 31.347656 C 136.613281 32.035156 136.820312 32.308594 137.535156 32.289062 C 139.011719 32.246094 140.492188 32.296875 141.96875 32.269531 C 142.617188 32.257812 142.84375 32.511719 142.859375 33.160156 C 142.90625 35.042969 142.929688 35.042969 141.058594 35.039062 C 139.894531 35.039062 138.730469 35.066406 137.566406 35.027344 C 136.894531 35.003906 136.609375 35.203125 136.621094 35.933594 C 136.65625 38.273438 136.65625 40.613281 136.621094 42.953125 C 136.613281 43.648438 136.839844 43.910156 137.539062 43.898438 C 139.425781 43.867188 141.316406 43.882812 143.203125 43.890625 C 144.257812 43.894531 144.292969 43.984375 144.324219 45.34375 C 144.347656 46.179688 144.246094 46.761719 143.175781 46.664062 C 142.269531 46.582031 141.351562 46.648438 140.34375 46.648438 Z M 140.34375 46.648438 "/>
<path style=" stroke:none;fill-rule:nonzero;fill:rgb(0%,0%,0%);fill-opacity:1;" d="M 49.710938 23.820312 C 47.652344 23.828125 47.851562 23.65625 47.851562 25.609375 C 47.84375 32.183594 47.847656 38.757812 47.847656 45.332031 C 47.847656 46.640625 47.84375 46.648438 46.542969 46.644531 C 44.589844 46.640625 44.761719 46.832031 44.757812 44.871094 C 44.753906 38.296875 44.757812 31.722656 44.757812 25.148438 C 44.753906 23.8125 44.75 23.816406 43.382812 23.8125 C 42.566406 23.8125 41.746094 23.800781 40.929688 23.808594 C 40.371094 23.816406 40.15625 23.566406 40.167969 23 C 40.222656 20.617188 39.953125 20.9375 42.148438 20.925781 C 45.199219 20.90625 48.25 20.941406 51.300781 20.898438 C 52.1875 20.886719 52.613281 21.152344 52.515625 22.074219 C 52.492188 22.292969 52.496094 22.519531 52.515625 22.738281 C 52.585938 23.558594 52.214844 23.890625 51.40625 23.824219 C 50.875 23.785156 50.335938 23.820312 49.710938 23.820312 Z M 49.710938 23.820312 "/>
<path style=" stroke:none;fill-rule:nonzero;fill:rgb(0%,0%,0%);fill-opacity:1;" d="M 157.976562 23.03125 C 157.980469 23.757812 157.535156 23.800781 157.070312 23.800781 C 156.097656 23.8125 155.121094 23.839844 154.148438 23.796875 C 153.476562 23.765625 153.265625 24.039062 153.277344 24.679688 C 153.316406 27.523438 153.359375 30.367188 153.347656 33.210938 C 153.332031 37.285156 153.226562 41.359375 153.371094 45.433594 C 153.402344 46.382812 153.105469 46.707031 152.136719 46.667969 C 150.175781 46.585938 150.324219 46.84375 150.324219 44.796875 C 150.324219 38.222656 150.324219 31.648438 150.324219 25.070312 C 150.324219 23.816406 150.316406 23.808594 149.0625 23.804688 C 148.179688 23.800781 147.300781 23.800781 146.417969 23.800781 C 145.882812 23.800781 145.59375 23.550781 145.613281 22.992188 C 145.613281 22.867188 145.613281 22.738281 145.609375 22.613281 C 145.597656 20.917969 145.601562 20.917969 147.25 20.917969 C 150.332031 20.921875 153.414062 20.917969 156.496094 20.917969 C 158.035156 20.917969 158.035156 20.917969 157.988281 22.472656 C 157.980469 22.632812 157.984375 22.789062 157.976562 23.03125 Z M 157.976562 23.03125 "/>
<path style=" stroke:none;fill-rule:nonzero;fill:rgb(0%,0%,0%);fill-opacity:1;" d="M 0.03125 44.105469 C 0.03125 36.832031 0.0273438 29.652344 0.0351562 22.46875 C 0.0390625 21.960938 -0.179688 21.234375 0.4375 21.035156 C 1.203125 20.789062 2.066406 20.792969 2.851562 21.058594 C 3.226562 21.1875 3.105469 21.667969 3.105469 22.003906 C 3.113281 24.3125 3.109375 26.621094 3.113281 28.929688 C 3.113281 33.546875 3.132812 38.167969 3.09375 42.785156 C 3.085938 43.675781 3.378906 43.933594 4.230469 43.90625 C 5.929688 43.851562 7.628906 43.914062 9.328125 43.875 C 10.136719 43.855469 10.515625 44.132812 10.4375 44.96875 C 10.410156 45.25 10.414062 45.535156 10.421875 45.820312 C 10.449219 46.421875 10.175781 46.65625 9.574219 46.652344 C 6.675781 46.632812 3.78125 46.632812 0.886719 46.648438 C 0.28125 46.652344 0.0195312 46.410156 0.03125 45.8125 C 0.046875 45.273438 0.0351562 44.738281 0.03125 44.105469 Z M 0.03125 44.105469 "/>
</g>
</svg>
