<svg version="1.1" id="Layer_1" xmlns="http://www.w3.org/2000/svg" xmlns:xlink="http://www.w3.org/1999/xlink" x="0px" y="0px"
	 width="100%" viewBox="0 0 1024 1024" enable-background="new 0 0 1024 1024" xml:space="preserve">
<path fill="#000000" opacity="1.000000" stroke="none" 
	d="
M466.171631,948.678711 
	C490.185028,951.478699 513.885864,951.999634 537.467285,950.413208 
	C584.257385,947.265381 629.644104,937.337585 673.184082,919.501404 
	C746.328796,889.537537 807.409912,843.588074 856.374023,781.558228 
	C875.434631,757.411377 891.753418,731.510803 905.255249,703.856140 
	C906.462646,701.383118 907.417419,698.786743 908.883911,695.313416 
	C901.785950,697.036438 895.648132,698.306030 889.409912,698.957031 
	C887.758362,699.129395 886.029846,700.084961 884.513550,699.785461 
	C875.019775,697.910400 870.398315,704.191467 865.580139,710.516724 
	C861.039368,716.477783 856.218628,722.226074 851.499878,728.050842 
	C845.120789,735.924988 835.487671,737.359253 828.099548,731.557861 
	C820.931946,725.929565 819.987122,716.303162 825.750000,708.371582 
	C826.892578,706.799072 828.534668,705.522095 829.349121,702.046692 
	C773.715149,709.702026 725.443420,693.058411 682.547424,658.426819 
	C676.536682,665.800415 671.360718,673.191772 665.120667,679.536621 
	C657.614624,687.168823 652.262817,695.743652 648.517578,705.731018 
	C644.946899,715.252930 639.595764,723.989441 633.673035,732.263367 
	C629.070496,738.692932 625.525635,745.394409 623.942627,753.274719 
	C621.477112,765.548218 616.681641,777.172363 611.754211,788.568604 
	C607.982971,797.290955 609.349854,805.648132 610.897339,813.984741 
	C614.516418,833.481445 613.669617,852.150818 605.128174,870.472168 
	C602.016418,877.146912 598.303223,880.028625 591.161926,878.965576 
	C588.551392,878.577026 585.829468,879.010132 583.173584,878.836182 
	C578.764465,878.547302 577.981323,877.176819 579.708435,873.002625 
	C582.882080,865.332336 586.835999,858.008667 589.137695,849.947510 
	C591.816772,840.564819 591.068726,831.193481 589.829590,821.791687 
	C589.091736,816.192261 588.033020,810.633240 587.044434,805.069214 
	C585.490173,796.320984 588.113525,788.335022 591.306335,780.400330 
	C595.775574,769.293579 601.125977,758.249268 602.818970,746.476440 
	C604.446472,735.158752 610.905518,727.068420 616.690369,718.264526 
	C624.041260,707.077026 630.044983,695.250732 633.916199,682.399658 
	C634.917419,679.076172 637.053894,676.637451 639.573303,674.354126 
	C651.777405,663.293640 661.679382,650.376709 670.004883,636.213501 
	C670.594421,635.210510 671.111206,634.158264 671.578735,633.092529 
	C671.838318,632.500977 671.925842,631.833862 672.196716,630.795288 
	C666.540771,628.405396 660.953979,626.000732 655.325928,623.696472 
	C653.855103,623.094299 652.851990,624.396240 651.757568,625.066162 
	C645.964722,628.612366 641.733643,633.813599 637.491089,638.933777 
	C628.573120,649.696716 618.859436,659.397827 605.321106,664.224060 
	C603.148193,664.998657 600.820984,665.370850 598.541077,665.802917 
	C597.322632,666.033813 596.213562,665.622559 595.580505,664.434570 
	C594.915039,663.185608 595.443481,662.121887 596.333252,661.298157 
	C597.920288,659.828857 599.542297,658.381409 601.265015,657.077209 
	C612.233154,648.773682 619.819031,637.576294 627.466675,626.448853 
	C633.619446,617.496521 640.720581,609.772034 651.381775,606.112244 
	C654.899658,604.904602 657.999207,605.005127 661.411011,606.781616 
	C689.078430,621.187134 714.710510,616.297913 738.869263,598.294739 
	C740.870483,596.803406 742.818298,595.228333 744.908020,593.872681 
	C746.206787,593.030151 747.708191,591.373169 749.307617,593.009399 
	C750.725525,594.460083 750.401855,596.437866 749.556091,598.169189 
	C746.666870,604.083557 742.651550,609.169739 737.760559,613.532227 
	C724.182190,625.643250 708.410889,632.210999 690.067993,632.172852 
	C689.249695,632.171143 688.431213,632.288330 687.406860,632.365723 
	C687.172791,634.977966 689.208435,635.894165 690.600891,637.056458 
	C713.101807,655.838013 738.057800,670.444458 766.391602,678.113647 
	C782.139587,682.376282 798.676331,682.823242 815.013184,681.473450 
	C825.460388,680.610229 835.990967,680.800842 846.373535,678.976868 
	C848.661377,678.574951 850.359436,677.899353 851.842712,676.068909 
	C871.667603,651.602539 891.455261,627.104553 911.505249,602.823364 
	C915.035522,598.548157 913.111267,594.405212 912.286133,590.544067 
	C908.159912,571.235779 903.137878,552.133423 897.256042,533.278992 
	C890.809753,512.615173 882.705872,492.633484 872.842102,473.324127 
	C860.262268,448.698029 847.225220,424.376709 832.322632,401.033661 
	C824.657532,389.027100 813.447388,383.339294 800.670837,379.231293 
	C784.988403,374.189026 769.084778,370.005890 752.951416,366.760284 
	C748.933655,365.951996 744.653687,366.173096 740.511292,366.341370 
	C736.948792,366.486053 734.786377,369.144592 733.561646,372.116211 
	C728.810791,383.643341 724.118469,395.201019 719.752075,406.877350 
	C717.721619,412.307007 719.964844,417.078094 723.963013,420.856079 
	C727.225098,423.938507 730.876465,426.604736 734.275269,429.547791 
	C738.482971,433.191223 743.133484,433.550507 748.324219,432.112335 
	C751.199341,431.315765 753.231262,429.891296 753.887512,427.049072 
	C754.770691,423.223969 757.186707,422.600311 760.622559,423.000275 
	C772.356934,424.366272 784.128113,425.334900 795.940002,425.713257 
	C798.173584,425.784821 799.730835,426.395966 800.210205,428.919281 
	C803.665527,447.109253 811.403381,463.993988 816.376953,481.732147 
	C821.904846,501.447144 824.831299,521.341553 822.493774,541.837952 
	C821.683411,548.943970 822.611206,556.176147 821.110352,563.254089 
	C820.772461,564.847717 821.007690,566.619934 819.368835,567.785828 
	C817.192139,567.887817 816.360535,565.999939 815.158203,564.747681 
	C803.348999,552.447876 790.140381,542.253601 773.522644,537.290588 
	C767.103577,535.373596 760.452515,534.134033 753.835938,535.636963 
	C749.842346,536.544006 747.410583,535.541931 744.682312,532.654846 
	C730.390503,517.530823 713.711060,505.695160 693.806702,499.338196 
	C679.599731,494.800934 664.817017,494.310577 649.891907,495.743927 
	C641.343140,496.564880 633.340454,500.664062 624.460144,499.397797 
	C621.198975,498.932770 618.753052,500.636749 616.855530,503.833832 
	C611.042297,513.628052 602.518066,516.367676 591.678406,512.590942 
	C575.680603,507.016968 561.862732,498.025848 549.656799,486.340515 
	C544.878296,481.765869 541.865601,476.450623 540.872375,469.967560 
	C538.481873,454.364014 538.039795,438.795471 541.993591,423.349701 
	C542.441040,421.601593 543.022400,419.769226 544.028015,418.311371 
	C545.403748,416.316956 547.171143,416.376099 548.124023,418.792389 
	C548.973877,420.947266 549.888550,423.216705 550.038757,425.484314 
	C550.929626,438.930847 553.325073,452.168335 555.273987,465.469452 
	C555.773254,468.876831 556.939636,471.992004 559.417236,474.353607 
	C570.450317,484.869965 582.510254,493.988708 596.508423,500.221832 
	C604.813904,503.920105 612.377441,500.879456 615.351624,492.165161 
	C617.426636,486.085480 620.308838,482.673492 627.156433,483.780121 
	C629.962646,484.233582 631.353333,482.274200 631.912292,479.700623 
	C632.398865,477.459961 633.315308,475.460693 635.863647,475.116882 
	C639.917542,474.569885 641.619324,471.826721 641.980896,468.287201 
	C642.495972,463.246124 645.037476,461.194672 649.961853,461.806091 
	C650.618530,461.887573 651.293884,461.825684 651.960510,461.818542 
	C658.546570,461.748077 658.812317,461.527802 658.832642,455.106140 
	C658.864807,444.939697 659.009460,434.768555 658.745850,424.608765 
	C658.645203,420.730164 659.497253,418.157227 663.520447,417.188690 
	C666.713318,416.420044 667.990295,413.954193 668.561707,411.003601 
	C672.034241,393.072357 675.853333,375.178894 676.348450,356.833130 
	C676.713928,343.290802 670.560425,332.441772 661.318115,323.204132 
	C644.968872,306.863098 624.728943,297.561676 602.836914,291.216217 
	C590.745483,287.711487 578.467102,286.868378 566.357788,289.651917 
	C545.414734,294.465942 529.047241,305.825684 518.943970,325.416138 
	C509.897644,342.957214 504.696594,361.526703 503.245422,381.153137 
	C501.796936,400.743103 498.752716,419.792633 486.785706,436.250397 
	C480.055481,445.506195 471.630310,452.100647 460.109375,454.050659 
	C448.239227,456.059814 436.263306,456.536407 424.242889,456.323181 
	C422.005219,456.283478 420.506531,455.165558 419.103851,453.670990 
	C402.774536,436.272339 382.223297,428.780945 358.817810,427.908661 
	C344.650848,427.380676 331.017395,430.078339 317.656952,434.499939 
	C315.958862,435.061859 314.139221,435.509277 312.644775,437.459290 
	C316.133453,441.758606 319.901123,445.965881 322.586792,450.935120 
	C325.861725,456.994629 328.398346,463.249207 328.212433,470.308929 
	C328.157776,472.385193 327.964752,474.661499 325.722565,475.292908 
	C323.159271,476.014832 322.465942,473.547302 321.580353,471.842346 
	C310.865845,451.214813 295.444580,435.356140 274.131134,425.732361 
	C262.724548,420.581879 250.564804,420.239899 238.388351,422.061951 
	C229.134384,423.446686 220.205444,426.088745 212.024170,430.858246 
	C211.385284,431.230743 210.469894,431.128876 209.775024,431.233612 
	C208.063278,429.295471 208.620758,427.197876 208.876373,425.320709 
	C210.663589,412.196106 209.985092,399.092865 209.081543,385.945526 
	C207.514755,363.147247 208.575363,340.670715 218.755295,319.546753 
	C219.692642,317.601715 220.408508,315.544373 221.147339,313.510193 
	C223.841614,306.092072 223.819489,306.482910 231.682220,306.669067 
	C238.123062,306.821564 241.787552,309.454163 243.432068,315.591583 
	C244.068497,317.966797 245.431488,320.157806 246.542831,322.393280 
	C249.484299,328.310150 252.016739,329.827759 258.531921,328.580627 
	C263.032196,327.719208 267.873627,327.359680 271.943726,326.105896 
	C278.697357,324.025482 285.424683,322.404419 292.289307,320.820435 
	C297.360809,319.650238 302.129761,316.424408 307.212067,314.471161 
	C310.212830,313.317841 311.206085,310.663818 310.665253,307.476807 
	C308.349274,293.830322 304.494873,280.654236 299.040894,267.914001 
	C297.218933,263.658081 294.018311,261.951965 289.841644,261.314209 
	C283.931702,260.411743 278.040741,259.323883 272.101929,258.683777 
	C257.724548,257.134094 243.323746,255.802017 228.933380,254.371979 
	C225.676193,254.048309 222.665146,254.792953 219.800079,256.313599 
	C207.406845,262.891357 196.234680,270.804352 189.629913,283.749329 
	C188.955429,285.071228 187.955902,286.259583 188.074768,287.906158 
	C188.578995,289.179596 189.822983,289.265625 190.906708,289.606812 
	C203.356903,293.526520 207.323395,305.698059 199.215088,316.049225 
	C192.232132,324.963776 184.806091,333.530792 177.593399,342.265900 
	C157.440598,366.672333 137.366592,391.144348 117.101707,415.457306 
	C111.872681,421.730865 111.248444,429.434692 109.718620,436.780701 
	C108.096710,444.569000 107.429817,452.566162 106.538368,460.493713 
	C105.688690,468.049805 107.175514,475.085205 111.941940,481.222870 
	C120.308846,491.996918 129.882782,501.371277 142.386246,507.305389 
	C159.980759,515.655701 175.012451,527.898926 190.791031,539.019592 
	C202.901550,547.554993 214.954926,556.207886 229.292099,560.881226 
	C240.329376,564.478882 251.867981,564.575439 263.205475,566.092468 
	C278.181183,568.096375 292.949921,565.614197 307.919128,564.588745 
	C307.523956,561.989563 305.633972,561.296936 304.300140,560.188904 
	C291.815826,549.817749 283.629669,536.818176 280.492889,520.848572 
	C279.825867,517.452698 278.062622,512.388000 281.884216,510.979919 
	C285.514557,509.642273 286.435089,514.976562 287.926971,517.645264 
	C296.350647,532.713440 307.358307,545.198914 323.263458,552.472900 
	C334.299164,557.519897 345.993134,560.082153 358.238739,557.984558 
	C361.976471,557.344360 364.910767,558.171814 367.933197,560.508301 
	C377.619995,567.996521 381.139374,578.650696 383.139374,589.925781 
	C385.253418,601.843994 386.492859,613.926697 390.789398,625.363708 
	C391.548065,627.383240 393.003815,629.814636 390.770386,631.267517 
	C388.248932,632.907776 386.518982,630.306091 384.960358,628.724304 
	C378.104401,621.766235 374.522095,613.000061 371.609009,603.907898 
	C369.181580,596.331726 367.363403,588.545227 363.759247,581.381104 
	C361.726105,577.339783 359.174469,574.993835 353.925873,575.996277 
	C348.256287,577.079163 342.390717,576.020813 336.138519,575.025574 
	C335.777283,582.615051 337.307037,589.338989 339.128876,596.034668 
	C343.991028,613.904114 353.494232,629.603943 362.385223,645.573975 
	C364.525879,649.418945 365.350586,652.993042 364.181427,657.412292 
	C362.549469,663.580750 362.904297,670.021179 363.678741,676.304138 
	C365.606781,691.945618 367.115784,707.689880 372.839111,722.590576 
	C373.674866,724.766357 372.829956,726.794678 372.252838,728.906006 
	C366.735901,749.088928 363.482819,769.519226 366.128906,790.508972 
	C367.918579,804.705444 362.679474,817.376221 357.538452,830.007690 
	C351.178497,845.634155 342.700348,860.152527 333.656158,874.365356 
	C331.720947,877.406494 329.602234,878.759216 325.953186,878.507568 
	C321.644592,878.210327 317.294800,878.517883 312.962738,878.550171 
	C311.166870,878.563599 309.273499,878.916138 307.413391,876.718933 
	C310.544373,871.352112 313.708649,865.751038 317.040192,860.251282 
	C326.371399,844.847351 335.163940,829.179504 341.029480,812.057129 
	C343.294525,805.445007 344.516693,798.867004 343.975922,791.629761 
	C342.645325,773.823303 343.908539,756.044006 347.053589,738.438416 
	C347.401489,736.491089 347.881470,734.497192 348.714142,732.718689 
	C352.374481,724.900757 348.153412,717.795715 346.558289,710.601624 
	C342.934631,694.258301 341.190094,677.794006 341.871826,661.101624 
	C342.092773,655.690918 340.610077,651.120972 337.923096,646.499817 
	C327.682007,628.887024 318.949310,610.607544 315.303650,590.334656 
	C314.591248,586.372986 312.297180,586.198120 309.124084,586.732239 
	C292.896851,589.463501 276.530060,588.332092 260.237427,588.018005 
	C229.262421,587.420959 202.492279,575.494690 178.126328,556.913696 
	C162.254288,544.810059 146.042267,533.228271 128.032532,524.157776 
	C112.293777,516.231079 100.318130,503.509338 90.769608,488.715271 
	C86.814026,482.586731 85.020195,475.648224 84.953186,468.320435 
	C84.917206,464.385956 84.946793,460.450897 84.946793,455.681671 
	C80.616821,458.414673 78.931541,462.182922 76.206955,464.951843 
	C74.341820,466.847290 72.779587,469.040375 70.918640,470.940460 
	C66.365387,475.589447 60.971375,477.465942 54.561066,475.447174 
	C48.045574,473.395233 44.203705,468.868103 43.138470,462.228516 
	C41.532379,452.217896 40.231792,442.158630 38.754917,432.126862 
	C34.614658,404.003998 30.405151,375.891266 26.308876,347.761993 
	C22.308546,320.291565 18.341391,292.815826 14.514623,265.320862 
	C13.250145,256.235657 18.908644,248.604202 27.598774,246.981247 
	C36.354225,245.346085 44.308887,250.388687 46.065216,259.675171 
	C48.228027,271.110901 49.574898,282.701447 51.255035,294.227905 
	C54.657082,317.567352 58.038277,340.909882 61.469036,364.245087 
	C61.606064,365.177094 62.162491,366.047485 62.621769,367.191284 
	C65.088753,366.214050 65.101028,363.924072 65.695343,362.236359 
	C73.730110,339.419189 83.098404,317.190521 94.419464,295.791870 
	C125.970062,236.156021 168.386917,185.607529 221.315277,143.829163 
	C266.675720,108.024429 317.044006,81.553467 372.064178,64.176582 
	C407.871185,52.867737 444.569214,45.747551 482.194611,43.679066 
	C583.222168,38.124992 676.924377,61.473717 762.575195,115.414124 
	C839.713379,163.993469 897.490234,229.991653 936.553772,312.380737 
	C955.366882,352.059418 967.562378,393.771057 975.100830,436.924011 
	C976.473694,444.783295 977.421021,452.716095 978.716003,460.590088 
	C980.184509,469.519104 974.873657,477.526245 965.918396,479.619232 
	C957.767456,481.524231 949.369446,476.583313 947.360779,467.820221 
	C945.359009,459.086914 944.220459,450.150085 942.837891,441.281494 
	C934.530945,387.995636 916.481995,338.169220 889.383423,291.625916 
	C859.124390,239.654419 819.640808,195.890106 771.272705,160.166702 
	C726.658325,127.215767 677.348450,103.852089 623.864319,89.578186 
	C596.189026,82.192169 567.905212,77.929291 539.217468,76.110771 
	C469.426544,71.686729 402.551880,83.619698 338.481873,111.255341 
	C286.487854,133.682205 240.456512,165.120132 200.615509,205.358917 
	C148.887619,257.603210 112.265968,318.954956 91.063660,389.422424 
	C90.399483,391.629852 89.942047,393.899445 89.177345,396.993256 
	C92.825386,394.544769 94.678543,391.490570 97.027748,388.942200 
	C114.603371,369.876556 126.120087,346.789032 139.412262,324.895477 
	C150.563522,306.528229 160.972885,287.702972 172.392746,269.508575 
	C183.182724,252.317764 198.661209,240.195923 217.895477,233.889572 
	C226.361694,231.113739 235.790695,232.327759 244.678406,233.693527 
	C253.561813,235.058640 262.540924,235.041855 271.432129,236.472137 
	C281.069305,238.022400 290.795837,238.840927 300.259155,241.529419 
	C307.241272,243.513000 312.376648,247.546951 316.110107,253.611481 
	C322.020599,263.212372 325.116119,273.926697 328.180573,284.620514 
	C330.006531,290.992340 331.422729,297.487366 332.863647,303.962524 
	C335.704132,316.727234 326.898376,329.988678 313.734467,336.104431 
	C302.146667,341.487976 289.958099,344.743835 277.765991,347.208893 
	C267.509766,349.282532 257.022705,354.019531 245.942535,349.547455 
	C241.898529,347.915253 238.220306,345.792908 234.354050,343.342560 
	C232.160385,346.762787 231.464218,350.207397 231.253525,353.892334 
	C230.443497,368.059845 231.684341,382.218719 231.315826,396.379272 
	C231.233597,399.538910 232.477982,400.220398 235.514130,400.118073 
	C244.337250,399.820618 253.191620,399.540497 262.000732,399.954926 
	C274.673676,400.551086 285.753387,406.063873 296.075989,412.916962 
	C300.358032,415.759735 303.926544,416.376007 308.800018,414.425720 
	C323.916626,408.376495 340.016449,405.195557 356.032104,405.545471 
	C380.656647,406.083557 404.136627,412.426300 423.783417,428.397247 
	C429.043488,432.673187 433.936554,435.261627 440.807617,433.830292 
	C444.681458,433.023315 448.761719,433.201904 452.749786,432.949585 
	C461.442566,432.399597 467.140106,427.494751 471.181061,420.229126 
	C477.447357,408.962280 479.998535,396.789581 480.785736,383.982697 
	C482.570679,354.944214 489.832428,327.461456 506.905548,303.449036 
	C523.387695,280.267792 546.601990,268.771545 574.703674,266.666809 
	C602.619873,264.575989 627.238342,274.589722 650.837585,287.855743 
	C666.428955,296.620239 679.993347,307.842957 689.161621,323.540741 
	C697.199646,337.303497 700.326233,351.878143 697.848572,368.030029 
	C695.889099,380.803711 694.390686,393.677612 692.030945,406.389221 
	C690.408447,415.129700 689.429871,424.307648 682.601013,431.152893 
	C680.877563,432.880524 681.027893,435.114960 681.132874,437.273621 
	C681.569458,446.249298 682.173767,455.184784 680.461914,464.157959 
	C679.892334,467.143738 678.227783,469.677917 677.835876,472.849365 
	C682.486572,475.905090 688.088806,475.040802 693.129883,476.295410 
	C708.431702,480.103546 722.003296,487.176819 734.877686,495.898865 
	C741.640930,500.480804 748.175415,505.376190 754.052124,511.094208 
	C755.488525,512.491821 756.994202,513.785400 759.250305,513.665955 
	C773.177307,512.928894 785.746887,517.480774 797.905212,523.631287 
	C798.474915,523.919434 799.149658,523.999756 800.455383,524.369202 
	C801.092041,518.907471 801.108032,513.709473 800.219421,508.536530 
	C796.802185,488.643280 789.344910,469.927948 783.268677,450.810272 
	C782.696960,449.011444 781.995850,447.304535 779.788208,447.030731 
	C774.073608,446.322021 768.840515,445.599213 763.112305,449.095093 
	C750.818237,456.598114 737.683838,457.778748 724.950867,449.577026 
	C717.937378,445.059448 711.279663,439.896301 705.882996,433.524445 
	C697.605591,423.751526 694.425842,412.380096 698.849121,400.034851 
	C703.334534,387.515961 708.627625,375.283905 713.662659,362.965332 
	C718.307556,351.601501 733.203125,341.709351 749.907654,344.432068 
	C773.974976,348.354767 797.096375,355.032654 819.950439,363.262299 
	C836.370789,369.175171 845.956421,381.937469 854.544434,395.759399 
	C875.036804,428.740753 893.437317,462.863800 908.228027,498.803314 
	C915.306396,516.002747 920.644287,533.845947 925.319885,551.858887 
	C927.194153,559.079773 929.621399,566.168213 930.589905,573.615356 
	C930.710388,574.541992 931.063171,575.586853 932.766235,576.247742 
	C937.234924,570.797668 941.834229,565.190979 946.430237,559.581543 
	C948.225464,557.390503 949.992493,555.176025 951.808472,553.002319 
	C956.284973,547.644104 962.082397,545.499329 968.784180,547.130981 
	C975.785156,548.835449 979.833496,553.827393 981.025452,560.830505 
	C982.588684,570.014954 983.774414,579.263062 985.200928,588.471619 
	C990.697876,623.956970 996.223267,659.437805 1001.744019,694.919495 
	C1004.860779,714.950195 1007.978394,734.980774 1011.116699,755.008118 
	C1012.777039,765.603455 1007.182068,773.923767 997.174194,775.668884 
	C988.597778,777.164429 980.646851,770.679749 979.014038,760.361023 
	C975.452759,737.854431 972.139587,715.308655 968.677490,692.786255 
	C966.682373,679.807434 964.601929,666.841614 962.528381,653.875000 
	C962.409363,653.130798 962.005310,652.432129 961.344360,650.678833 
	C956.959290,664.135071 952.391663,676.425903 947.494446,688.591492 
	C927.895020,737.280701 900.527222,781.197083 866.087769,820.731628 
	C821.781982,871.592102 768.895447,911.142212 707.885803,939.761108 
	C669.242188,957.888428 628.725647,970.072449 586.657349,977.470032 
	C551.964478,983.570679 517.027283,984.739685 482.081818,982.743713 
	C434.077484,980.001770 387.651794,969.295532 342.756561,951.836914 
	C271.664185,924.190857 210.876068,881.684387 160.221741,824.902100 
	C109.071655,767.564087 73.864799,701.566040 55.416111,626.790894 
	C51.788437,612.087341 48.578823,597.322754 46.414249,582.331238 
	C45.007767,572.590088 50.902393,564.485718 60.666199,562.900146 
	C68.494232,561.629028 76.728081,567.737976 78.233528,576.534729 
	C81.264870,594.247864 84.490021,611.922607 89.327141,629.234802 
	C108.271912,697.038940 141.630661,756.814026 189.211960,808.745544 
	C230.571350,853.886169 279.344452,888.696716 335.098663,913.639404 
	C372.371155,930.313843 411.265717,941.766846 451.911804,946.810425 
	C456.519836,947.382202 461.116882,948.042603 466.171631,948.678711 
M900.343445,667.811279 
	C899.115112,670.057129 896.464722,671.416565 895.895203,675.137390 
	C903.574158,674.279114 910.614441,672.689087 915.176453,666.815186 
	C919.350159,661.441162 918.832764,654.646912 917.927917,647.973328 
	C910.980225,653.531677 906.459961,660.904602 900.343445,667.811279 
z"/>
</svg>