<svg version="1.1" id="Layer_1" xmlns="http://www.w3.org/2000/svg" xmlns:xlink="http://www.w3.org/1999/xlink" x="0px" y="0px"
	 width="100%" viewBox="0 0 1024 1024" enable-background="new 0 0 1024 1024" xml:space="preserve">
<path fill="#000000" opacity="1.000000" stroke="none" 
	d="
M192.769012,530.921875 
	C199.765991,494.415375 206.714249,458.335449 213.658218,422.254700 
	C217.772308,400.878021 221.962387,379.515381 225.923157,358.110321 
	C226.759674,353.589508 228.527603,351.617035 233.456848,351.803711 
	C243.440674,352.181732 253.449493,351.975861 263.446747,351.880310 
	C266.757721,351.848694 268.582123,352.829071 269.255615,356.445007 
	C274.612732,385.206879 280.151611,413.934875 285.622742,442.675568 
	C293.862396,485.959808 302.086182,529.247070 310.331024,572.530273 
	C312.160370,582.133850 314.049133,591.726074 316.092377,602.261353 
	C306.723389,602.261353 297.986847,602.361694 289.255005,602.202332 
	C286.504608,602.152161 286.704346,599.450134 286.349060,597.617554 
	C283.783875,584.385254 281.128357,571.165527 278.914093,557.873047 
	C278.179962,553.465759 276.376465,552.180054 272.028107,552.239075 
	C255.034317,552.469727 238.032410,552.513123 221.040680,552.216614 
	C216.436493,552.136292 215.024033,553.945801 214.324646,558.036255 
	C212.109177,570.993958 209.514023,583.886475 207.257355,596.837585 
	C206.544861,600.926636 204.918640,602.859192 200.407867,602.500427 
	C195.108841,602.079041 189.744370,602.233826 184.420670,602.447449 
	C180.160034,602.618469 179.321350,600.825562 180.078842,596.967957 
	C184.370850,575.110107 188.520447,553.224365 192.769012,530.921875 
M245.410202,391.005310 
	C236.731537,436.287323 228.052872,481.569366 219.304916,527.212891 
	C237.745728,527.212891 255.293808,527.212891 273.438965,527.212891 
	C271.141632,515.527161 268.934357,504.315033 266.733398,493.101624 
	C260.134644,459.482208 253.546280,425.860748 246.871979,392.256348 
	C246.762878,391.707031 247.825500,389.652985 245.410202,391.005310 
z"/>
<path fill="#000000" opacity="1.000000" stroke="none" 
	d="
M656.178406,500.822937 
	C643.671387,488.799744 629.626099,479.063110 617.836243,466.734161 
	C593.919373,441.723724 588.926086,412.693970 600.262268,380.819855 
	C607.559326,360.302582 623.958618,351.167542 645.013916,349.793640 
	C656.253174,349.060211 667.350708,350.131073 677.727234,354.969238 
	C694.042236,362.576294 701.399719,376.710938 704.988342,393.349243 
	C706.498779,400.351837 706.893677,407.517670 707.052124,414.695007 
	C707.136719,418.529022 705.695129,420.185364 701.809875,420.076294 
	C696.149170,419.917328 690.477234,419.885620 684.817505,420.052368 
	C681.015991,420.164368 679.568542,418.821198 679.548828,414.844727 
	C679.510986,407.199341 679.098022,399.538025 676.304382,392.241150 
	C671.891602,380.714996 663.933228,375.965179 649.352295,376.254669 
	C637.633118,376.487305 629.712646,382.115204 626.097717,393.154694 
	C619.525146,413.226501 624.264099,430.872345 638.042236,446.382751 
	C645.817078,455.135040 654.865967,462.504944 664.007446,469.764465 
	C678.318298,481.129211 691.905945,493.332520 699.816101,510.179718 
	C711.289185,534.615540 709.959045,559.018433 697.021973,582.546753 
	C690.030396,595.262207 678.130249,601.380493 664.242188,603.929443 
	C652.604309,606.065430 641.068420,605.499878 629.653564,602.307373 
	C609.733887,596.736084 600.631104,581.765381 595.879272,563.199707 
	C593.210083,552.771179 593.672302,542.044800 593.760498,531.382324 
	C593.780396,528.979675 594.656555,527.605957 597.254578,527.612183 
	C603.918762,527.628174 610.583984,527.643555 617.247009,527.542969 
	C621.013611,527.486145 620.948486,530.023926 621.010498,532.619934 
	C621.200928,540.590698 620.563416,548.587463 622.260437,556.500793 
	C626.571960,576.605347 649.408264,585.832397 666.416870,574.093567 
	C674.157654,568.751099 676.406860,560.373108 677.733582,551.601257 
	C680.942871,530.382202 671.227478,514.668030 656.178406,500.822937 
z"/>
<path fill="#000000" opacity="1.000000" stroke="none" 
	d="
M341.098328,579.726807 
	C332.962219,564.028687 332.608521,547.397217 332.839020,530.665588 
	C332.871460,528.310791 334.100037,527.499207 336.330353,527.506226 
	C342.827423,527.526672 349.326965,527.535889 355.821198,527.374695 
	C359.230347,527.290100 360.101593,529.087280 360.106262,532.037109 
	C360.115814,538.035156 359.921478,544.057190 360.382965,550.025146 
	C361.021667,558.285034 363.143524,566.054382 369.462341,572.118958 
	C382.474091,584.607056 408.660278,578.820679 414.282257,561.784546 
	C421.171875,540.907227 416.405426,522.511475 401.224701,506.635468 
	C391.282593,496.238068 379.780029,487.647797 369.025208,478.192444 
	C358.082458,468.571991 348.185883,458.076660 341.299011,445.022186 
	C334.767365,432.641022 333.489563,419.384796 334.317200,405.741486 
	C334.771515,398.252258 335.718994,390.852356 338.283508,383.714600 
	C346.048889,362.101196 361.456665,350.735596 384.551453,349.744690 
	C396.691193,349.223785 408.602142,350.348907 419.458893,356.283051 
	C434.252594,364.369080 440.897034,378.084534 444.152374,393.808472 
	C445.602509,400.812958 446.159058,407.958282 446.155212,415.141724 
	C446.153412,418.491058 444.813873,420.051483 441.418640,420.009552 
	C435.254181,419.933472 429.087189,419.912170 422.923279,420.003906 
	C419.663574,420.052429 418.683838,418.556671 418.608643,415.431732 
	C418.424713,407.786377 418.147675,400.111511 415.527802,392.786835 
	C411.360992,381.137146 403.704834,376.187134 390.000458,376.234802 
	C377.103607,376.279663 368.946777,381.624634 365.162659,393.096375 
	C358.479156,413.357849 363.333038,431.112488 377.411194,446.690430 
	C385.376190,455.503937 394.540833,462.983582 403.800476,470.354248 
	C417.712341,481.428192 430.684814,493.399078 438.612885,509.692871 
	C450.225159,533.558411 448.856567,557.376404 437.161438,580.744568 
	C430.934326,593.186951 420.173828,600.062134 406.843903,603.160339 
	C395.140137,605.880493 383.427155,605.823547 371.722229,603.125732 
	C358.120422,599.990784 347.866547,592.440979 341.098328,579.726807 
z"/>
<path fill="#000000" opacity="1.000000" stroke="none" 
	d="
M794.999878,602.408386 
	C775.172363,602.408569 755.844788,602.421509 736.517273,602.400757 
	C730.377075,602.394165 730.263123,601.823486 730.143188,595.924255 
	C729.639038,571.116638 730.960632,546.320679 730.297485,521.507080 
	C729.901733,506.697601 730.536316,491.862915 730.562378,477.039307 
	C730.619202,444.715790 730.610291,412.392059 730.564148,380.068512 
	C730.553467,372.575897 730.345947,365.081848 730.112976,357.592041 
	C729.980713,353.337006 731.772095,351.819031 736.094788,351.838470 
	C766.751648,351.976532 797.409607,351.966919 828.066589,351.845245 
	C832.514404,351.827576 834.502930,353.218475 834.222229,357.883392 
	C833.932556,362.698090 833.945007,367.554504 834.207153,372.371918 
	C834.450745,376.847931 832.931458,378.503143 828.234009,378.454559 
	C807.409180,378.239136 786.579285,378.504852 765.754944,378.266144 
	C760.876526,378.210266 759.085327,379.319916 759.146057,384.589691 
	C759.424255,408.745880 759.365051,432.907776 759.183594,457.065796 
	C759.150940,461.412048 760.399231,462.869873 764.829407,462.812225 
	C781.321594,462.597534 797.819458,462.844086 814.312561,462.667114 
	C818.572937,462.621429 820.438477,463.916687 820.209839,468.345642 
	C819.960999,473.164520 819.904846,478.023804 820.234314,482.833313 
	C820.553833,487.496368 818.628235,488.971649 814.174255,488.932465 
	C798.180359,488.791595 782.184387,488.879913 766.189209,488.903870 
	C759.269531,488.914246 759.270752,488.938904 759.272400,495.841003 
	C759.278442,520.666870 759.382629,545.493469 759.197144,570.317932 
	C759.164001,574.757141 760.612671,576.070801 764.924194,576.034790 
	C785.749939,575.860779 806.577698,575.925110 827.404785,575.939697 
	C833.820679,575.944153 834.117004,576.275146 834.154236,582.772339 
	C834.182922,587.770630 834.037720,592.772949 834.194580,597.766418 
	C834.302612,601.205933 832.924194,602.482727 829.488647,602.445068 
	C818.160278,602.320923 806.829712,602.404358 794.999878,602.408386 
z"/>
<path fill="#000000" opacity="1.000000" stroke="none" 
	d="
M534.137939,545.000000 
	C534.141357,562.488525 534.024048,579.478455 534.228333,596.464539 
	C534.282715,600.980469 532.914062,602.749329 528.253906,602.486206 
	C522.277039,602.148743 516.260193,602.233398 510.273041,602.462708 
	C506.351013,602.612915 505.013092,601.141907 505.078339,597.243591 
	C506.178650,531.464050 505.444336,465.678864 505.439850,399.896301 
	C505.439362,392.989594 506.263397,385.963928 504.805328,378.887543 
	C500.240875,377.840790 495.747955,378.467010 491.304565,378.412445 
	C482.311981,378.302063 473.315826,378.278290 464.324005,378.412964 
	C460.951080,378.463470 459.473022,377.343750 459.598511,373.814880 
	C459.787842,368.492035 459.910767,363.139252 459.556641,357.832916 
	C459.244385,353.152863 461.084442,351.813019 465.568390,351.840912 
	C490.050873,351.993195 514.534790,351.913300 539.018250,351.909821 
	C550.843567,351.908112 562.670593,352.009216 574.493347,351.833069 
	C578.629517,351.771423 580.189575,353.397339 580.049927,357.431732 
	C579.871399,362.588745 579.851807,367.762299 580.049194,372.917786 
	C580.204651,376.976807 578.680603,378.519379 574.521362,378.443542 
	C563.366028,378.240051 552.204407,378.374054 541.045288,378.395782 
	C534.151428,378.409210 534.145691,378.427063 534.145203,385.108002 
	C534.141357,438.238678 534.139893,491.369324 534.137939,545.000000 
z"/>
<path fill="#000000" opacity="1.000000" stroke="none" 
	d="
M877.988403,378.361389 
	C869.660706,378.362091 861.825195,378.192657 854.002197,378.430786 
	C849.778381,378.559326 848.415894,376.871887 848.609619,372.838684 
	C848.849182,367.852234 848.930786,362.826752 848.584839,357.852661 
	C848.255920,353.123932 850.235107,351.818176 854.673218,351.849884 
	C875.497375,351.998749 896.323242,351.915802 917.148499,351.915100 
	C932.475891,351.914551 947.804504,352.021149 963.129883,351.845215 
	C967.623291,351.793640 969.514099,353.301483 969.257568,357.924591 
	C968.971802,363.073761 969.068970,368.253235 969.207825,373.413910 
	C969.305054,377.028290 967.874268,378.456238 964.195068,378.411682 
	C952.701233,378.272552 941.199829,378.562042 929.711304,378.281372 
	C924.811768,378.161682 923.151733,379.514893 923.164673,384.716003 
	C923.338013,454.355225 923.280273,523.995056 923.277161,593.634766 
	C923.276794,602.398621 923.269409,602.401489 914.727234,602.404907 
	C909.562622,602.406982 904.393250,602.263000 899.234985,602.441650 
	C895.725830,602.563171 894.358398,601.100159 894.654968,597.709961 
	C894.770630,596.387329 894.670044,595.046021 894.669983,593.713196 
	C894.668274,524.573303 894.668518,455.433441 894.662292,386.293579 
	C894.661621,378.444794 894.600586,378.399536 886.482666,378.366028 
	C883.817139,378.355042 881.151489,378.362122 877.988403,378.361389 
z"/>
<path fill="#000000" opacity="1.000000" stroke="none" 
	d="
M65.962524,371.001587 
	C65.968559,366.003357 66.056343,361.502869 65.956993,357.006500 
	C65.870094,353.073486 67.808517,351.767426 71.526108,351.861145 
	C77.687195,352.016479 83.858589,352.028015 90.018784,351.855408 
	C93.833511,351.748505 95.484932,353.134613 95.334618,357.088135 
	C95.119522,362.745239 95.268639,368.416382 95.269173,374.081512 
	C95.275299,439.064178 95.280922,504.046875 95.292435,569.029541 
	C95.293663,575.948853 95.310539,575.955627 102.137024,575.954895 
	C121.465187,575.952759 140.794449,576.053894 160.120712,575.860291 
	C164.829773,575.813110 166.765335,577.236511 166.412781,582.140625 
	C166.043365,587.279358 166.101303,592.478638 166.401550,597.626465 
	C166.655045,601.972595 164.387054,602.454773 160.903275,602.443970 
	C136.076797,602.366882 111.249977,602.405701 86.423256,602.405029 
	C81.091393,602.404846 75.756798,602.288757 70.428680,602.427063 
	C67.162651,602.511780 65.937386,601.025330 65.961891,597.940186 
	C66.012184,591.609070 65.968079,585.277283 65.967880,578.945740 
	C65.965683,509.797516 65.964455,440.649323 65.962524,371.001587 
z"/>
</svg>